<svg width="200" height="235" viewBox="0 0 200 235" fill="none" xmlns="http://www.w3.org/2000/svg">
<path d="M33.8139 226V199.504H36.7299V211.564L36.2619 211.924C36.7659 210.46 37.6059 209.356 38.7819 208.612C39.9579 207.844 41.3139 207.46 42.8499 207.46C47.1939 207.46 49.3659 209.848 49.3659 214.624V226H46.4499V214.768C46.4499 213.088 46.1139 211.864 45.4419 211.096C44.7699 210.304 43.7139 209.908 42.2739 209.908C40.5939 209.908 39.2499 210.424 38.2419 211.456C37.2339 212.488 36.7299 213.88 36.7299 215.632V226H33.8139ZM61.8205 226.252C60.2125 226.252 58.7965 225.88 57.5725 225.136C56.3725 224.368 55.4365 223.288 54.7645 221.896C54.1165 220.48 53.7925 218.824 53.7925 216.928C53.7925 215.032 54.1285 213.376 54.8005 211.96C55.4725 210.544 56.4085 209.44 57.6085 208.648C58.8325 207.856 60.2365 207.46 61.8205 207.46C63.4765 207.46 64.8805 207.868 66.0325 208.684C67.1845 209.5 67.9645 210.664 68.3725 212.176L67.9405 212.464V207.892H70.8205V226H67.9405V221.32L68.3725 221.536C67.9645 223.048 67.1845 224.212 66.0325 225.028C64.8805 225.844 63.4765 226.252 61.8205 226.252ZM62.3965 223.84C64.1725 223.84 65.5405 223.24 66.5005 222.04C67.4605 220.816 67.9405 219.088 67.9405 216.856C67.9405 214.624 67.4485 212.908 66.4645 211.708C65.5045 210.508 64.1485 209.908 62.3965 209.908C60.6205 209.908 59.2285 210.532 58.2205 211.78C57.2365 213.004 56.7445 214.72 56.7445 216.928C56.7445 219.136 57.2365 220.84 58.2205 222.04C59.2285 223.24 60.6205 223.84 62.3965 223.84ZM75.5944 234.172L74.9824 231.904C76.0864 231.64 77.0104 231.328 77.7544 230.968C78.5224 230.632 79.1584 230.188 79.6624 229.636C80.1904 229.084 80.6464 228.352 81.0304 227.44L82.1824 224.776L82.8304 223.876L89.4544 207.892H92.3704L83.9104 227.656C83.2624 229.12 82.5304 230.284 81.7144 231.148C80.8984 232.036 79.9744 232.708 78.9424 233.164C77.9344 233.62 76.8184 233.956 75.5944 234.172ZM82.2184 226.936L74.0824 207.892H77.1424L83.6944 223.876L82.2184 226.936ZM110.204 223.84C109.412 224.584 108.392 225.172 107.144 225.604C105.92 226.036 104.66 226.252 103.364 226.252C101.492 226.252 99.8725 225.88 98.5045 225.136C97.1605 224.392 96.1165 223.324 95.3725 221.932C94.6525 220.516 94.2925 218.836 94.2925 216.892C94.2925 215.02 94.6525 213.376 95.3725 211.96C96.0925 210.544 97.0885 209.44 98.3605 208.648C99.6565 207.856 101.144 207.46 102.824 207.46C104.432 207.46 105.812 207.82 106.964 208.54C108.116 209.236 108.992 210.244 109.592 211.564C110.216 212.884 110.528 214.468 110.528 216.316V216.856H96.8485V214.948H108.872L107.936 216.28C107.984 214.168 107.564 212.548 106.676 211.42C105.812 210.292 104.54 209.728 102.86 209.728C101.108 209.728 99.7285 210.352 98.7205 211.6C97.7365 212.824 97.2445 214.528 97.2445 216.712C97.2445 219.064 97.7605 220.84 98.7925 222.04C99.8485 223.24 101.384 223.84 103.4 223.84C104.456 223.84 105.464 223.672 106.424 223.336C107.408 222.976 108.344 222.436 109.232 221.716L110.204 223.84ZM127.158 226L117.294 216.748L126.402 207.928H130.11L120.03 217.576L120.138 215.74L130.974 226H127.158ZM114.954 226V199.504H117.87V226H114.954ZM133.4 222.292H137.108V226H133.4V222.292ZM148.586 226.252C146.978 226.252 145.562 225.88 144.338 225.136C143.138 224.368 142.202 223.288 141.53 221.896C140.882 220.48 140.558 218.824 140.558 216.928C140.558 215.032 140.894 213.376 141.566 211.96C142.238 210.544 143.174 209.44 144.374 208.648C145.598 207.856 147.002 207.46 148.586 207.46C150.242 207.46 151.646 207.868 152.798 208.684C153.95 209.5 154.73 210.664 155.138 212.176L154.706 212.464V207.892H157.586V226H154.706V221.32L155.138 221.536C154.73 223.048 153.95 224.212 152.798 225.028C151.646 225.844 150.242 226.252 148.586 226.252ZM149.162 223.84C150.938 223.84 152.306 223.24 153.266 222.04C154.226 220.816 154.706 219.088 154.706 216.856C154.706 214.624 154.214 212.908 153.23 211.708C152.27 210.508 150.914 209.908 149.162 209.908C147.386 209.908 145.994 210.532 144.986 211.78C144.002 213.004 143.51 214.72 143.51 216.928C143.51 219.136 144.002 220.84 144.986 222.04C145.994 223.24 147.386 223.84 149.162 223.84ZM163.224 226V207.892H166.14V226H163.224ZM162.936 200.224H166.5V203.536H162.936V200.224Z" fill="#0288D1"/>
<circle cx="100" cy="100" r="87.5" stroke="#0288D1" stroke-width="5"/>
<mask id="mask0" mask-type="alpha" maskUnits="userSpaceOnUse" x="25" y="50" width="150" height="101">
<line x1="27.5" y1="91.5" x2="27.5" y2="109.197" stroke="black" stroke-width="5" stroke-linecap="round"/>
<line x1="172.5" y1="91.5" x2="172.5" y2="109.197" stroke="black" stroke-width="5" stroke-linecap="round"/>
<line x1="43.6111" y1="91.5" x2="43.6111" y2="109.197" stroke="black" stroke-width="5" stroke-linecap="round"/>
<line x1="156.389" y1="91.5" x2="156.389" y2="109.197" stroke="black" stroke-width="5" stroke-linecap="round"/>
<line x1="59.7222" y1="80.5" x2="59.7222" y2="120.893" stroke="black" stroke-width="5" stroke-linecap="round"/>
<line x1="140.278" y1="80.5" x2="140.278" y2="120.893" stroke="black" stroke-width="5" stroke-linecap="round"/>
<line x1="91.9444" y1="52.5" x2="91.9444" y2="148.5" stroke="black" stroke-width="5" stroke-linecap="round"/>
<line x1="108.056" y1="52.5" x2="108.056" y2="148.5" stroke="black" stroke-width="5" stroke-linecap="round"/>
<line x1="75.8333" y1="68.5" x2="75.8333" y2="131.59" stroke="black" stroke-width="5" stroke-linecap="round"/>
<line x1="124.167" y1="68.5" x2="124.167" y2="131.59" stroke="black" stroke-width="5" stroke-linecap="round"/>
</mask>
<g mask="url(#mask0)">
<rect x="17" y="50" width="165.9" height="102.135" fill="url(#paint0_linear)"/>
</g>
<defs>
<linearGradient id="paint0_linear" x1="99.95" y1="50" x2="99.95" y2="152.135" gradientUnits="userSpaceOnUse">
<stop offset="0.473958" stop-color="#0288D1"/>
<stop offset="1"/>
</linearGradient>
</defs>
</svg>
